<?xml version="1.0" encoding="UTF-8"?>
<svg width="266.54" height="187.88" version="1.1" viewBox="0 0 266.53812 187.88145" xml:space="preserve" xmlns="http://www.w3.org/2000/svg"><defs><clipPath id="clipPath22"><path d="m0 288h576v-288h-576z"/></clipPath></defs><g transform="matrix(1.3333 0 0 -1.3333 -73.773 286.86)"><path d="m250.76 213.4h-73.099v-20.02h73.099z" fill="#99d420"/><g clip-path="url(#clipPath22)"><g transform="translate(76.525 153.93)"><path d="m0 0h31.994c15.891 0 23.734 10.398 23.734 22.175 0 7.258-2.737 12.762-7.062 15.906-3.919 2.93-8.242 4.312-15.497 4.312h-33.169zm-21.196 61.22h54.552c11.779 0 21.008-2.739 28.463-9.213 7.855-6.672 13.928-17.27 13.928-29.832 0-18.056-10.203-32.774-27.081-38.656l32.381-62.029h-25.113l-28.859 59.665h-27.075v-59.665h-21.196z" fill="#231f20"/></g><g transform="translate(235.21 134.1)"><path d="m0 0c-0.594 15.104-9.217 23.158-21.003 23.158-11.772 0-20.602-8.054-20.995-23.158zm-41.998-16.492c0-16.281 10.009-24.519 23.745-24.519 7.648 0 15.897 3.522 21.784 9.607l14.522-12.364c-9.811-11.371-22.566-16.096-35.912-16.096-20.41 0-44.16 9.819-44.16 50.642 0 38.66 21.789 51.224 41.016 51.224 21.984 0 41.029-16.287 41.029-42.002v-16.492z" fill="#231f20"/></g></g></g></svg>